<?xml version="1.0" standalone="no"?>
<!DOCTYPE svg PUBLIC "-//W3C//DTD SVG 20010904//EN"
 "http://www.w3.org/TR/2001/REC-SVG-20010904/DTD/svg10.dtd">
<svg version="1.0" xmlns="http://www.w3.org/2000/svg"
 width="1137.000000pt" height="1137.000000pt" viewBox="0 0 1137.000000 1137.000000"
 preserveAspectRatio="xMidYMid meet">
<metadata>
Created by potrace 1.11, written by Peter Selinger 2001-2013
</metadata>
<g transform="translate(0.000000,1137.000000) scale(0.100000,-0.100000)"
fill="#000000" stroke="none">
<path d="M6819 9566 c-2 -2 -51 -7 -109 -11 -133 -8 -167 -12 -210 -20 -19 -3
-53 -8 -75 -10 -22 -2 -90 -14 -150 -26 -61 -11 -121 -23 -135 -25 -14 -3 -33
-7 -42 -10 -9 -3 -25 -6 -35 -8 -10 -2 -45 -11 -78 -20 -33 -9 -67 -18 -75
-20 -26 -7 -123 -37 -184 -58 -33 -11 -64 -21 -70 -23 -13 -2 -42 -13 -71 -25
-11 -5 -66 -27 -123 -49 -56 -23 -110 -45 -120 -50 -9 -5 -78 -39 -152 -76
-158 -78 -233 -118 -240 -126 -3 -3 -39 -25 -80 -50 -41 -24 -77 -46 -80 -49
-3 -3 -39 -27 -80 -55 -70 -47 -279 -201 -290 -214 -3 -3 -34 -31 -70 -61 -78
-65 -319 -306 -375 -374 -82 -101 -175 -225 -175 -234 0 -6 -4 -12 -9 -14 -30
-12 -220 -351 -286 -513 -20 -49 -41 -99 -45 -110 -14 -33 -59 -164 -65 -188
-3 -12 -16 -65 -30 -117 -13 -52 -27 -106 -29 -120 -3 -14 -7 -34 -9 -45 -3
-11 -8 -40 -12 -65 -4 -25 -9 -53 -11 -64 -2 -10 -6 -44 -10 -75 -3 -31 -8
-65 -11 -76 -7 -33 -16 -252 -16 -375 0 -180 17 -418 38 -550 3 -19 8 -48 10
-65 5 -33 23 -139 29 -170 2 -11 16 -69 31 -129 15 -59 28 -116 30 -125 15
-72 113 -325 176 -454 164 -338 430 -587 859 -802 47 -24 101 -50 120 -58 19
-8 56 -24 82 -36 26 -11 50 -21 52 -21 3 0 17 -5 33 -12 15 -6 30 -12 33 -12
3 -1 10 -4 15 -7 12 -8 250 -83 325 -103 30 -8 80 -22 110 -30 30 -8 66 -17
80 -20 14 -3 52 -12 85 -20 33 -8 74 -17 90 -20 17 -3 67 -12 113 -21 46 -8
98 -17 115 -19 18 -3 39 -7 47 -10 8 -3 38 -8 65 -10 28 -3 61 -7 74 -10 13
-3 47 -8 75 -11 28 -2 62 -7 76 -9 14 -3 50 -7 80 -10 30 -3 79 -8 109 -11 29
-4 83 -8 120 -11 36 -2 91 -6 121 -8 144 -11 351 -18 620 -22 162 -2 327 -6
365 -9 154 -10 202 -14 245 -19 25 -3 70 -8 100 -11 30 -3 87 -10 125 -16 39
-5 88 -12 110 -15 46 -6 80 -12 80 -14 0 -1 14 -4 30 -5 17 -2 57 -9 90 -15
33 -7 69 -13 80 -15 11 -2 20 -4 20 -5 0 -1 9 -3 20 -5 11 -2 61 -11 110 -20
150 -28 178 -32 238 -36 20 -2 37 -5 37 -8 0 -4 19 -7 43 -7 23 -1 89 -5 147
-9 180 -12 422 -8 565 10 17 3 53 7 80 10 28 3 66 10 85 15 19 5 52 11 74 14
21 4 41 8 45 11 4 2 21 7 37 10 46 10 48 10 59 17 6 3 26 9 45 13 19 4 49 13
65 20 129 54 218 94 265 118 30 16 87 46 125 66 39 20 72 39 73 44 2 4 9 7 16
7 8 0 24 8 37 18 13 10 44 30 69 43 25 13 54 32 64 42 11 9 23 17 28 17 12 0
180 143 218 187 58 65 74 86 107 134 32 45 145 259 137 259 -2 0 10 30 26 66
17 36 30 70 30 74 0 5 5 21 12 37 6 15 12 30 13 33 1 3 7 25 14 50 7 25 19 63
26 85 8 22 16 51 19 65 3 14 16 75 30 135 13 61 26 129 29 152 4 22 8 52 11
65 3 12 7 41 10 63 3 22 8 58 11 80 3 22 8 67 11 100 8 80 11 595 4 595 -3 0
-5 12 -6 28 -1 30 -12 132 -19 177 -9 55 -27 157 -30 170 -10 45 -17 75 -26
105 -5 19 -11 46 -13 60 -2 14 -9 39 -16 55 -6 17 -11 31 -11 33 1 1 1 3 0 5
0 1 -2 9 -4 17 -4 21 -80 238 -95 275 -7 17 -16 39 -20 50 -28 74 -160 340
-202 410 -69 113 -162 261 -167 265 -3 3 -19 25 -35 50 -34 52 -171 232 -206
270 -8 9 -37 43 -65 75 -153 180 -356 380 -595 586 -84 72 -271 219 -279 219
-5 0 -11 3 -13 8 -6 14 -137 106 -308 214 -66 42 -235 138 -243 138 -3 0 -33
16 -66 35 -34 19 -64 35 -66 35 -7 1 -118 50 -136 60 -81 43 -487 190 -527
190 -7 0 -20 4 -30 9 -25 14 -204 57 -357 86 -51 10 -205 34 -247 39 -27 3
-67 8 -90 11 -24 3 -65 8 -93 11 -64 7 -570 16 -576 10z"/>
<path d="M1650 8599 c-79 -14 -100 -19 -143 -36 -56 -22 -143 -83 -158 -110
-7 -13 -16 -23 -21 -23 -4 0 -8 -7 -8 -15 0 -8 -5 -15 -10 -15 -6 0 -9 -3 -8
-7 0 -5 -7 -26 -16 -47 -31 -70 -42 -165 -41 -351 1 -99 -3 -191 -8 -205 -16
-40 -33 -80 -75 -171 -50 -108 -60 -143 -56 -199 5 -66 8 -77 27 -98 9 -10 13
-22 8 -28 -23 -26 -77 -217 -97 -344 -3 -19 -7 -42 -9 -50 -5 -19 -15 -77 -20
-115 -2 -16 -13 -86 -25 -154 -11 -69 -22 -136 -23 -151 -2 -14 -7 -31 -11
-38 -4 -7 -4 -12 -1 -12 4 0 -2 -12 -13 -27 -48 -69 -98 -217 -89 -267 15 -78
18 -93 23 -116 22 -90 26 -219 8 -247 -8 -13 -12 -23 -9 -23 4 0 -1 -7 -9 -16
-18 -18 -21 -85 -6 -114 24 -44 45 -43 95 6 26 25 49 43 51 41 3 -2 -2 -31
-11 -63 -16 -61 -20 -186 -10 -334 7 -99 44 -404 59 -475 2 -11 7 -40 10 -65
3 -25 8 -56 12 -70 3 -14 7 -38 9 -55 3 -16 7 -41 10 -55 5 -24 21 -115 29
-165 3 -13 7 -28 9 -32 3 -5 8 -32 11 -62 4 -30 9 -64 11 -75 17 -84 20 -167
14 -501 -1 -66 2 -174 6 -240 4 -66 9 -147 11 -180 2 -33 7 -103 11 -155 3
-52 7 -119 7 -147 1 -29 3 -53 7 -53 3 0 5 -10 6 -22 1 -71 23 -290 30 -301 2
-4 8 -5 13 -2 13 8 16 -34 7 -88 -7 -44 -48 -146 -82 -207 -8 -15 -23 -25 -37
-25 -20 -1 -95 -10 -168 -20 -30 -5 -117 -17 -145 -21 -11 -1 -20 -3 -20 -4 0
-1 -16 -3 -35 -6 -19 -2 -58 -9 -86 -14 -28 -6 -64 -13 -80 -16 -16 -3 -57
-11 -90 -19 -34 -8 -73 -16 -85 -19 -44 -9 -174 -46 -234 -68 -53 -18 -88 -34
-166 -73 -42 -21 -33 -55 21 -82 27 -14 166 -47 240 -58 25 -3 59 -8 75 -11
17 -2 53 -6 80 -9 28 -3 70 -8 95 -11 25 -3 70 -8 100 -10 30 -2 75 -6 100 -8
25 -2 90 -7 145 -10 55 -3 134 -8 175 -11 224 -15 426 -18 1020 -18 615 1 794
4 1000 17 99 7 251 16 330 21 30 2 55 4 55 5 0 1 18 3 40 4 54 4 174 16 205
21 14 2 45 6 70 9 25 3 83 13 130 21 47 9 98 19 115 22 16 3 42 11 57 19 16 8
28 12 28 9 0 -3 9 3 21 14 17 15 19 23 10 39 -19 36 -160 91 -351 138 -8 2
-42 10 -76 18 -65 16 -90 21 -169 36 -27 5 -61 11 -75 14 -52 10 -146 26 -180
30 -19 3 -51 7 -70 10 -19 3 -51 8 -70 10 -19 2 -55 7 -80 10 -25 4 -63 8 -85
10 -50 5 -75 15 -75 30 0 6 -17 30 -39 52 -27 30 -42 57 -51 95 -7 30 -17 66
-23 82 -8 22 -6 31 9 48 12 13 17 32 15 57 -7 96 -10 122 -19 173 -6 30 -13
68 -16 84 -2 17 -10 57 -17 90 -6 33 -13 69 -15 80 -1 11 -3 20 -4 20 -1 0 -3
9 -6 20 -2 11 -17 79 -34 150 -17 72 -33 141 -35 155 -3 14 -8 32 -11 40 -4 8
-8 24 -9 35 -7 51 -79 265 -115 340 -31 65 -56 146 -65 210 -4 22 -8 51 -11
65 -2 14 -6 113 -9 220 -4 185 -7 234 -20 340 -2 25 -7 65 -9 90 -3 25 -7 63
-10 85 -5 36 -8 54 -20 130 -2 11 -7 43 -10 70 -4 28 -9 57 -11 65 -3 8 -7 31
-10 50 -6 44 -14 88 -21 120 -3 14 -8 41 -10 60 -3 19 -7 43 -10 52 -7 22 -13
56 -19 97 -2 18 -7 41 -10 51 -3 10 -7 31 -9 46 -2 16 -6 36 -8 44 -1 8 2 15
7 15 6 1 17 4 25 7 8 3 38 14 65 23 71 25 158 79 215 135 191 186 260 503 205
945 -1 11 -5 31 -8 45 -4 14 -9 42 -12 64 -3 21 -8 42 -10 46 -3 5 -9 28 -14
52 -16 77 -20 93 -29 113 -5 11 -15 38 -21 60 -24 77 -75 200 -103 246 -59 97
-163 165 -258 168 -17 1 -21 4 -12 10 17 10 40 89 36 121 -6 39 -35 110 -45
110 -5 0 -8 3 -7 8 1 4 -13 38 -31 76 -28 59 -40 102 -42 151 -1 12 8 68 17
110 15 70 6 155 -17 155 -5 0 -9 5 -9 11 0 5 -13 27 -28 47 -16 20 -34 56 -41
80 -31 111 -158 170 -374 176 -51 2 -112 -1 -137 -5z m53 -3619 c5 -14 58
-168 152 -445 19 -55 70 -206 115 -334 44 -129 80 -242 80 -251 0 -24 44 -130
105 -250 44 -88 123 -279 129 -315 3 -14 26 -85 35 -110 15 -37 32 -90 36
-109 3 -10 12 -44 21 -75 10 -31 19 -60 20 -66 1 -5 12 -41 24 -80 11 -38 22
-79 25 -90 2 -11 11 -45 20 -75 9 -30 18 -62 20 -70 42 -156 40 -152 78 -152
22 0 28 -9 49 -77 14 -42 22 -78 18 -81 -4 -3 -10 -22 -14 -43 l-7 -37 -78 4
c-44 2 -83 6 -88 8 -14 9 -835 6 -864 -2 -17 -5 -29 -5 -29 0 0 6 -10 6 -25 0
-14 -5 -25 -8 -26 -7 -3 8 -8 38 -14 72 -3 22 -14 47 -24 55 -13 11 -17 30
-16 78 0 60 1 63 34 83 l33 20 -8 62 c-15 107 -9 458 12 712 1 22 5 72 9 110
3 39 7 86 10 105 2 19 7 60 10 90 8 72 14 107 26 154 6 21 8 44 5 51 -2 7 -2
16 2 20 10 10 11 46 13 468 1 207 5 377 9 377 3 0 6 10 7 23 1 26 9 107 19
197 6 60 8 76 14 135 1 11 14 -16 29 -60 15 -44 31 -87 34 -95z"/>
</g>
</svg>
